HIERARCHY
ROOT Hips
{
	OFFSET -14.64140 90.27770 -84.91600
	CHANNELS 6 Xposition Yposition Zposition Zrotation Xrotation Yrotation
	JOINT Spine
	{
		OFFSET 0.00000 13.20850 -1.60436
		CHANNELS 3 Zrotation Xrotation Yrotation
		JOINT Spine1
		{
			OFFSET 0.00000 8.61716 0.00000
			CHANNELS 3 Zrotation Xrotation Yrotation
			JOINT Spine2
			{
				OFFSET 0.00000 8.61717 0.00000
				CHANNELS 3 Zrotation Xrotation Yrotation
				JOINT Spine3
				{
					OFFSET 0.00000 8.61717 0.00000
					CHANNELS 3 Zrotation Xrotation Yrotation
					JOINT Neck
					{
						OFFSET 0.00000 11.07920 1.10792
						CHANNELS 3 Zrotation Xrotation Yrotation
						JOINT Neck1
						{
							OFFSET 0.00000 7.08032 0.00000
							CHANNELS 3 Zrotation Xrotation Yrotation
							JOINT Head
							{
								OFFSET 0.00000 7.08031 0.00000
								CHANNELS 3 Zrotation Xrotation Yrotation
								End site
								{
									OFFSET 0.00000 0.00000 0.00000
								}
							}
						}
					}
					JOINT RightShoulder
					{
						OFFSET -0.01000 7.91373 5.19711
						CHANNELS 3 Zrotation Xrotation Yrotation
						JOINT RightArm
						{
							OFFSET -18.41580 0.00000 0.00000
							CHANNELS 3 Zrotation Xrotation Yrotation
							JOINT RightForeArm
							{
								OFFSET -29.11090 0.00000 0.00000
								CHANNELS 3 Zrotation Xrotation Yrotation
								JOINT RightHand
								{
									OFFSET -24.65040 0.00000 0.00000
									CHANNELS 3 Zrotation Xrotation Yrotation
									JOINT RightHandThumb1
									{
										OFFSET -5.35114 -0.85590 3.97906
										CHANNELS 3 Zrotation Xrotation Yrotation
										JOINT RightHandThumb2
										{
											OFFSET -4.52789 0.00000 0.00000
											CHANNELS 3 Zrotation Xrotation Yrotation
											JOINT RightHandThumb3
											{
												OFFSET -2.46976 0.00000 0.00000
												CHANNELS 3 Zrotation Xrotation Yrotation
												End site
												{
													OFFSET 0.00000 0.00000 0.00000
												}
											}
										}
									}
									JOINT RightHandIndex1
									{
										OFFSET -14.26970 0.00000 2.88139
										CHANNELS 3 Zrotation Xrotation Yrotation
										JOINT RightHandIndex2
										{
											OFFSET -5.48836 0.00000 0.00000
											CHANNELS 3 Zrotation Xrotation Yrotation
											JOINT RightHandIndex3
											{
												OFFSET -3.01859 0.00000 0.00000
												CHANNELS 3 Zrotation Xrotation Yrotation
												End site
												{
													OFFSET 0.00000 0.00000 0.00000
												}
											}
										}
									}
									JOINT RightHandMiddle1
									{
										OFFSET -14.26970 0.00000 -0.09147
										CHANNELS 3 Zrotation Xrotation Yrotation
										JOINT RightHandMiddle2
										{
											OFFSET -6.17441 0.00000 0.00000
											CHANNELS 3 Zrotation Xrotation Yrotation
											JOINT RightHandMiddle3
											{
												OFFSET -3.56743 0.00000 0.00000
												CHANNELS 3 Zrotation Xrotation Yrotation
												End site
												{
													OFFSET 0.00000 0.00000 0.00000
												}
											}
										}
									}
									JOINT RightHandRing1
									{
										OFFSET -12.69180 0.00000 -3.06433
										CHANNELS 3 Zrotation Xrotation Yrotation
										JOINT RightHandRing2
										{
											OFFSET -5.62556 0.00000 0.00000
											CHANNELS 3 Zrotation Xrotation Yrotation
											JOINT RightHandRing3
											{
												OFFSET -3.56744 0.00000 0.00000
												CHANNELS 3 Zrotation Xrotation Yrotation
												End site
												{
													OFFSET 0.00000 0.00000 0.00000
												}
											}
										}
									}
									JOINT RightHandPinky1
									{
										OFFSET -11.11390 0.00000 -6.03719
										CHANNELS 3 Zrotation Xrotation Yrotation
										JOINT RightHandPinky2
										{
											OFFSET -4.52789 0.00000 0.00000
											CHANNELS 3 Zrotation Xrotation Yrotation
											JOINT RightHandPinky3
											{
												OFFSET -2.46976 0.00000 0.00000
												CHANNELS 3 Zrotation Xrotation Yrotation
												End site
												{
													OFFSET 0.00000 0.00000 0.00000
												}
											}
										}
									}
								}
							}
						}
					}
					JOINT LeftShoulder
					{
						OFFSET 0.01000 7.91373 5.19711
						CHANNELS 3 Zrotation Xrotation Yrotation
						JOINT LeftArm
						{
							OFFSET 18.41580 0.00000 0.00000
							CHANNELS 3 Zrotation Xrotation Yrotation
							JOINT LeftForeArm
							{
								OFFSET 29.11090 0.00000 0.00000
								CHANNELS 3 Zrotation Xrotation Yrotation
								JOINT LeftHand
								{
									OFFSET 24.65040 0.00000 0.00000
									CHANNELS 3 Zrotation Xrotation Yrotation
									JOINT LeftHandThumb1
									{
										OFFSET 5.35114 -0.85590 3.97906
										CHANNELS 3 Zrotation Xrotation Yrotation
										JOINT LeftHandThumb2
										{
											OFFSET 4.52789 0.00000 0.00000
											CHANNELS 3 Zrotation Xrotation Yrotation
											JOINT LeftHandThumb3
											{
												OFFSET 2.46977 0.00000 0.00000
												CHANNELS 3 Zrotation Xrotation Yrotation
												End site
												{
													OFFSET 0.00000 0.00000 0.00000
												}
											}
										}
									}
									JOINT LeftHandIndex1
									{
										OFFSET 14.26970 0.00000 2.88139
										CHANNELS 3 Zrotation Xrotation Yrotation
										JOINT LeftHandIndex2
										{
											OFFSET 5.48836 0.00000 0.00000
											CHANNELS 3 Zrotation Xrotation Yrotation
											JOINT LeftHandIndex3
											{
												OFFSET 3.01859 0.00000 0.00000
												CHANNELS 3 Zrotation Xrotation Yrotation
												End site
												{
													OFFSET 0.00000 0.00000 0.00000
												}
											}
										}
									}
									JOINT LeftHandMiddle1
									{
										OFFSET 14.26970 0.00000 -0.09147
										CHANNELS 3 Zrotation Xrotation Yrotation
										JOINT LeftHandMiddle2
										{
											OFFSET 6.17440 0.00000 0.00000
											CHANNELS 3 Zrotation Xrotation Yrotation
											JOINT LeftHandMiddle3
											{
												OFFSET 3.56744 0.00000 0.00000
												CHANNELS 3 Zrotation Xrotation Yrotation
												End site
												{
													OFFSET 0.00000 0.00000 0.00000
												}
											}
										}
									}
									JOINT LeftHandRing1
									{
										OFFSET 12.69180 0.00000 -3.06433
										CHANNELS 3 Zrotation Xrotation Yrotation
										JOINT LeftHandRing2
										{
											OFFSET 5.62556 0.00000 0.00000
											CHANNELS 3 Zrotation Xrotation Yrotation
											JOINT LeftHandRing3
											{
												OFFSET 3.56744 0.00000 0.00000
												CHANNELS 3 Zrotation Xrotation Yrotation
												End site
												{
													OFFSET 0.00000 0.00000 0.00000
												}
											}
										}
									}
									JOINT LeftHandPinky1
									{
										OFFSET 11.11390 0.00000 -6.03719
										CHANNELS 3 Zrotation Xrotation Yrotation
										JOINT LeftHandPinky2
										{
											OFFSET 4.52789 0.00000 0.00000
											CHANNELS 3 Zrotation Xrotation Yrotation
											JOINT LeftHandPinky3
											{
												OFFSET 2.46976 0.00000 0.00000
												CHANNELS 3 Zrotation Xrotation Yrotation
												End site
												{
													OFFSET 0.00000 0.00000 0.00000
												}
											}
										}
									}
								}
							}
						}
					}
					JOINT pCube4
					{
						OFFSET 0.00000 10.91090 1.10792
						CHANNELS 3 Zrotation Xrotation Yrotation
						End site
						{
							OFFSET 0.00000 0.00000 0.00000
						}
					}
				}
			}
		}
	}
	JOINT RightUpLeg
	{
		OFFSET -9.98441 0.00000 0.00000
		CHANNELS 3 Zrotation Xrotation Yrotation
		JOINT RightLeg
		{
			OFFSET 0.00000 -42.11790 0.00000
			CHANNELS 3 Zrotation Xrotation Yrotation
			JOINT RightFoot
			{
				OFFSET 0.00000 -45.00020 -0.00001
				CHANNELS 3 Zrotation Xrotation Yrotation
				JOINT RightForeFoot
				{
					OFFSET 0.00000 -3.74820 0.00000
					CHANNELS 3 Zrotation Xrotation Yrotation
					JOINT RightToeBase
					{
						OFFSET 0.00000 0.06325 14.43120
						CHANNELS 3 Zrotation Xrotation Yrotation
						End site
						{
							OFFSET 0.00000 0.00000 0.00000
						}
					}
				}
			}
		}
	}
	JOINT LeftUpLeg
	{
		OFFSET 9.98441 0.00000 0.00000
		CHANNELS 3 Zrotation Xrotation Yrotation
		JOINT LeftLeg
		{
			OFFSET 0.00000 -42.11800 0.00000
			CHANNELS 3 Zrotation Xrotation Yrotation
			JOINT LeftFoot
			{
				OFFSET 0.00000 -45.00070 0.00000
				CHANNELS 3 Zrotation Xrotation Yrotation
				JOINT LeftForeFoot
				{
					OFFSET 0.00000 -3.74824 0.00000
					CHANNELS 3 Zrotation Xrotation Yrotation
					JOINT LeftToeBase
					{
						OFFSET 0.00000 0.06325 14.43110
						CHANNELS 3 Zrotation Xrotation Yrotation
						End site
						{
							OFFSET 0.00000 0.00000 0.00000
						}
					}
				}
			}
		}
	}
}
MOTION
Frames: 4
Frame Time: 0.050000
0.018587931825336516 -0.006391405147287925 0.03389542386742042 -0.007899820249243477 -0.025721061163035953 0.017035542455688873 -0.7138286888576226 2.6625173391002974 -1.2344535359762565 -0.8870674392131385 3.667747884157924 0.34776745585549956 -1.0791960836404373 -1.1125579490952626 -0.43983041737146955 0.48527519624590215 0.12853405668957799 -0.6704032906151076 0.9324080375959396 11.26567872963927 -3.330752031165654 0.22377248521903248 -1.649218587453209 -9.29213765579811 1.2835505515671453 -18.18549310844081 -0.8158336796814548 -6.804803597035295 2.483889667380316 -14.957170940219939 78.66140501144022 -1.4831687932731077 15.183619182632203 35.05386790775562 -0.9498384848902331 97.67916037909622 3.4957824289936426 0.03278202597232224 -1.6795195609427047 4.5132011425651655 -0.1636554365753095 -1.5601166049746913 -0.027434417425669797 -0.000917166022645094 -56.26894022021002 -0.0368671742353597 -0.0008470131091937669 -56.27433092118717 -38.77473678617177 -0.028229493685189073 0.0453269128547091 -0.046730203854359276 0.024519656679258314 0.02404280920861414 0.02979547532137775 -0.043106642498054695 -0.036215076994601435 -36.715534714909424 0.017158730985287828 0.003671278572204747 0.010470096749309463 -0.03544175233753064 0.006171655557186472 -0.005570347045524932 -0.04346994015159018 -0.04779828933416089 -19.762799286765706 -0.017209307612661425 0.04392357215908866 0.03835882587792419 0.015245157262666923 -0.011792186883345303 0.04060716763120271 -0.024106819505639813 -0.008699386649836247 24.005241685869663 -0.008141466498494319 -0.032352705748152986 28.868135325677734 0.0037908958121914424 0.033244593100520886 28.830780604916395 -0.013086899080829746 -0.03123944803387495 5.303590539738011 1.387691770704755 11.985270182258526 -71.4107901383014 28.227360025307853 -7.381013390234779 -18.0688568198752 -3.3560591364513135 -85.05223974129296 -9.247284237428294 -4.5932842308210935 3.594689356294878 -0.44594910682907063 0.031741916251486674 -8.166924911747778 0.01632803590751463 0.011953387606593804 44.578043380562065 0.042293191475131324 0.03768281733047577 44.580119679807396 12.415513502138086 -0.003479227107496619 0.03777886706276444 -0.016320132772122235 -0.029620873136457945 0.011241978608990892 -0.03694551075172606 -0.0021627839848859004 -0.03789761994036142 11.10082806072413 0.017935455085142434 -0.024296425181968662 0.004593755131028225 -0.011103864666931038 0.046228919970134626 -0.0337179061935908 -0.03595332255307218 -0.02625437487752127 4.7599552295930785 -0.005394714313921435 0.01688884300417152 -0.039081528415833414 -0.013226045622633237 -0.00433034456759624 0.0010560005485583373 0.049591048304508584 -0.021319607808064727 -5.615856689593673 0.034632195718455196 -0.0011721656411069886 -6.72418323572163 -0.036822558897358214 -0.014967940288630502 -6.7493112895043055 0.017403525898112754 0.005818733347899857 -0.0457604367696287 -0.026455062978012395 -0.031993339319298784 7.995963851915994 3.4737392452797144 -19.232772166940546 0.02424224561682714 10.399205876556795 -0.012720347430511432 -5.634583572816078 -15.650572544393002 3.175313352480601 0.04988599708815377 -0.03725328102996492 -0.02582462044014107 -0.03599596239453365 4.712629301078344 -0.009158704366771273 12.458749813508794 -8.217430518592375 6.897990270391662 -0.012277593087016545 46.356927517254896 0.021727183115651198 -4.346876611754456 -14.791486439676818 -3.854706124881358 0.010216077530779681 0.031148718666048892 -0.048752037321707194 -0.02626949619550395 -10.783727575509461 -0.014670817630137823 
0.03754668427720484 -0.00030887091774677245 0.034737935678173744 -0.03437968522570115 0.009988793013449598 -0.001518000188568601 -0.9004693871916356 2.467231511434072 -1.1829265064179744 -0.910787106140037 3.6447712483581327 0.36272763415238235 -1.141572660762624 -1.1637835398601726 -0.4081119925139694 0.4055529430109744 0.13052752500923842 -0.6840975912995834 0.920596686774431 11.211125002867194 -3.2504338849730203 0.1877065498297177 -1.6776128535691581 -9.104484972490399 1.272643940355961 -18.177635962665256 -0.8472584318347385 -6.696837124369295 2.4638484413119697 -14.8075924406208 77.85329208155603 -1.2035218512523842 15.561594472066583 30.57504306800701 -0.7653310255310631 99.6244576455726 2.9776480880638103 0.04776811358800254 -1.3219932335163374 4.531826391149413 -0.09278817213470797 -1.617298935478403 0.011298471356561365 0.0001540844746756089 -56.194334902519195 0.006378622169908015 -0.02914201300974067 -56.24897936064677 -38.777637064616876 -0.039572733119351236 0.03593795628138211 0.016913713402821554 -0.03139513679132931 -0.04497980775519988 0.014057948559227765 -0.04773913557501102 0.03747126465891971 -36.70673817758688 0.012990663922620358 -0.020498804628243567 0.0028920686124880635 -0.014261163997618257 -0.032676667014177235 0.0072480955175875834 -0.027178034413358722 -0.04259013865444215 -19.789029772296495 -0.0012737325859370557 0.04158441804688407 0.021093603123498884 -0.000795395159806322 0.02236953027928644 0.02058940205016085 0.00242658511894061 0.02199078850824072 24.048993605516472 -0.028874358164931144 -0.03862300049406616 28.903142899916404 0.040087763166444544 -0.014324153332297238 28.86151453290954 -0.01210983897515208 0.023790318197466416 5.221412482863985 1.367535899697705 11.914474164554635 -71.132220318005 29.099027281079543 -7.612312721861775 -13.228801768408452 -3.666018024712153 -85.44723993467179 -9.27822609715727 -4.380734961598603 3.3806118977143185 -0.4513766466193676 0.11540898715808073 -8.134478840592472 0.02028479390755512 0.03288591413683866 44.549138829825274 -0.03299580021779748 -0.005510258272610373 44.55041324967088 12.494990507009915 -0.032637481062526494 0.0366327365261424 0.02845163836588812 0.03235315817530559 -0.004868537171010392 0.003931158757341536 -0.02040771099077423 -0.003303178206660302 11.09838427149076 0.010366715548324782 0.04683654066524202 -0.03185228899549083 -0.041841763586269586 -0.04186378324630413 -0.0420368943347233 0.007683128215033352 0.015539049781922649 4.789405109916584 -0.022963319748667256 0.02768869344038118 -0.0011066757495584196 -0.0388030047689484 0.019320105384460204 -0.04580368214270976 0.023048602631356607 -0.006111330770309795 -5.554466114619723 -0.022142031960615552 -0.012978462882638701 -6.732000587070445 -0.008292533211536494 -0.032231631907619865 -6.690464433838669 -0.030334236724096516 -0.018702204275994738 -0.04068430767824818 -0.001314888161391605 -0.04406745787336669 8.06257802808115 3.4641090872307534 -19.229460556026822 -0.013812598759446395 10.383042061164144 0.010499951481216853 -5.60126074577959 -15.679241637542784 3.238409562736844 0.013197610549735296 -0.010716972663726072 -0.004141680180948717 0.026101062715323343 4.738376474562486 -0.0008284474224365577 12.479653059312149 -8.225826247074274 6.890371761432911 0.007725444639871551 46.36695019566736 0.0023586546788986725 -4.285184862411993 -14.789131958852241 -3.827695162128858 0.020097429372676973 -0.03156009986565885 0.022085408116385534 0.028984534398731988 -10.762771027786405 -0.029645338230939636 
0.02025681045710296 -0.04311524369795605 -0.041521198946157856 0.02274408120037364 -0.03405470032440521 0.0033974091086852614 -1.0175228518325956 2.307259073827699 -1.198448145287845 -0.8792418440672819 3.6544431657148153 0.419451586107161 -1.1163533404467758 -1.2248333015741157 -0.4339477553399998 0.3313467556925863 0.07076575774381125 -0.6494428491528175 0.9609372909309789 11.146926078328429 -3.16703345758855 0.18356772914429106 -1.6467306034990847 -8.89613832740983 1.241172455660261 -18.150595551127516 -0.7513031907073168 -6.577415481740621 2.492643125066865 -14.707585163319814 77.12366519441554 -0.47366270410902017 15.987223894143312 27.251230567711822 -0.8769437836002539 101.08575786448533 2.770846578846576 0.09296201368840565 -1.0800139939031013 4.552842490784148 -0.16734428957710734 -1.6026361735305117 0.01089637074760528 0.008610241963304444 -56.242181701003084 -0.0005383973786414732 -0.04436293206829208 -56.253639315805124 -38.8142510758611 -0.011944672096051408 -0.005412253894734593 0.015080199995999927 -0.02066922089735645 0.005911524540528489 -0.031096165980318124 -0.0067857193449182346 0.0014290457014571063 -36.66083177412782 -0.013017036707338807 0.03519234320890761 -0.007088646560507827 0.04182253893459976 -0.025736831883403626 0.003129762024658614 0.02641400213273889 0.015017762326119915 -19.754347238509233 0.0023477354611673986 -0.02910817884809881 0.006030837658976584 -0.04151973468951304 0.03361210396115829 0.031249289104891765 0.030436699136682118 0.02138571893042901 24.06028664633169 -0.012135596371507488 -0.01641364177519539 28.901904303455098 -0.012462481369770642 -0.024815727017341305 28.869142101035276 -0.014339263358435158 -0.019528153324863497 5.148307195332938 1.3955671502956548 11.868185247282616 -70.92839859040517 29.875098618874958 -7.903594476862046 -10.171463956484052 -3.861010918740697 -86.30973106250832 -9.44426871986752 -4.262972830961994 3.251641370610118 -0.4699982576239289 0.05808782734997292 -8.16407415525137 0.009872317486857012 0.004386520662853202 44.51754188431566 -0.02104012257312049 0.015961581764397523 44.53863028801948 12.46806492292498 -0.03915567515828722 0.0353707254203663 0.00876876580080652 0.03200720256828798 -0.009960274664412226 0.02617406413145043 -0.011055599260469702 -0.008955641969412014 11.125107690230822 0.04032767823020482 -0.00023785207109985765 0.04133946391229344 0.01838393554074516 0.025970912024123598 -0.02868045076601915 -0.02457323477144482 0.044156833260729826 4.761430445223503 -0.018499322867170074 0.02432218085040651 0.024657280224169537 0.049029270011652554 0.008340257472185706 0.012744121865929731 0.03363734570561097 0.04431542034194245 -5.6168115229500675 -0.043831284339729056 0.003639064654958789 -6.707393299501287 0.01037709405985735 0.02136091807557195 -6.712028693895719 -0.021123319488961064 -0.028151836725503324 -0.0007309136917001067 0.04472561455199472 -0.04399871297317788 8.045017200294248 3.542125646424697 -19.196051586596713 -0.021648069991843148 10.400246982050769 0.026014746221186436 -5.642519149619109 -15.69259494189701 3.228240456321758 0.049966075787761084 0.027921118112939732 0.0429550275190338 0.02292900135979292 4.718300452781605 0.03048137609836052 12.429374477310779 -8.209284315316498 6.853900491927359 0.014382270049858202 46.36290516327321 0.024528784694721348 -4.367672216366271 -14.78131064511016 -3.8591607266848755 0.016056893762395295 -0.049359162385357536 0.02650132752185127 -0.007098570036731982 -10.762548524521828 -0.027698233602342276 
0.024790662212938186 0.006381755578174376 -0.0489745154982604 0.012834088877754463 0.015658717515291753 0.0021646750980969165 -1.2187043190176179 2.126276587726707 -1.1999585691657415 -0.8877131939270261 3.684715423754528 0.41052693378551086 -1.170043352198855 -1.2891639639490668 -0.3809850784177802 0.22540969875835654 0.04729004224022237 -0.6902873009295917 0.9189787542365072 11.194802317354865 -3.079508497905783 0.22033492427587537 -1.568529171172481 -8.698126222221196 1.2492723397198116 -18.016051717851823 -0.817856033908981 -6.649293886985717 2.534110195888139 -14.613656222640197 76.90610298073089 -0.27707677201520753 16.831246802528412 25.21297575579036 -0.8109756094416666 101.98794164323645 2.648076549278182 0.02999522990384501 -0.8473277375628888 4.531195483341209 -0.15801831426254398 -1.6252055122808395 -0.039158301017218164 -0.041647200534991456 -56.28204257283323 0.04091371901179941 -0.03381490508464311 -56.27550446770789 -38.78453669069163 0.005392225155912482 0.018142832297448154 0.009883199904496265 -0.03212825410167049 0.01677181784544531 0.022262747725286948 -0.016408895123753247 0.019882512580157996 -36.651783203106554 -0.028686734618729066 0.029342738718074805 -0.004295194295990518 -0.02973616137676786 0.03852757661451686 -0.039599428989659714 0.0011697561991322715 -0.015422664477541521 -19.75584745937058 -0.012129010674958009 -0.0365265310078398 -0.04534106380510823 -0.0343698595919415 -0.038151652680003145 0.020268915799533684 0.003690872322496113 0.025905873057352844 24.060477808065063 0.011329999545148487 -0.03053358345287997 28.866036618158155 -0.00823108895381033 0.03669693578244674 28.847974457739095 0.022735689250563233 -0.0323582012608849 5.210945547509438 1.4386238231049029 11.83726775075243 -70.81403690525366 30.35537680693322 -8.157821070089094 -8.680437610767074 -3.880956780926478 -87.56709522105976 -9.467823435961657 -4.121865675260625 3.0534153373754362 -0.42629876198919725 0.060688813781898575 -8.090213389930456 -0.030602658847680476 0.030419853813881324 44.56884717395193 0.024553952250252198 0.012676261090570589 44.57626989240575 12.444478546255027 -0.046227531323674007 0.014253481592755654 0.007685244602641845 -0.022016249707575687 -0.02553809802116968 0.006568817052294059 0.01973157761695194 0.03747443375913936 11.1211575364758 -0.007285451996730384 0.03571059088822725 0.049945836402751694 -0.044478195942580824 -0.00990727142680075 -0.018039673268560867 0.028220942190603615 0.012422006936951635 4.740345953034534 -0.0068978637287998405 0.0390482829831414 -0.005137075431170357 -0.0208560567768036 -0.030250235208263563 -0.036802203814914496 -0.03580061388699795 -0.012990752648564082 -5.578269272709019 0.024095459599052658 0.03165552952589652 -6.704358508278024 0.021605894397620236 -0.001884497747304389 -6.700229222856644 0.041299882111621285 0.012521574586132332 0.029894414206064285 0.0031156778086887504 -0.027663315997084912 8.084965345545474 3.513914940320857 -19.215040259998847 -0.04163341762388947 10.394592719693597 -0.014760971784388444 -5.615161600399218 -15.698136021370441 3.227198003786063 0.01957664920167559 0.012307796254964152 -0.0025021115191168094 -0.023481279972449684 4.722861335274398 0.03211866638490839 12.505942597657958 -8.283500678587611 6.836550377431163 0.034189284750740755 46.40079042276125 -0.014271537238693191 -4.349185573713623 -14.732000471219001 -3.7873787435166424 0.04127664668584438 0.0043432861796903885 0.006292507116362697 0.025791691049543503 -10.766305620924317 -0.025217658137232198 
